<svg width="38" height="53" viewBox="0 0 38 53" fill="none" xmlns="http://www.w3.org/2000/svg">
<path d="M36.784 51.48H2.512V40.68H13.456V19.224L13.528 15.264H13.384C12.904 16.272 12.232 17.184 11.368 18L8.272 20.808L1 13.032L14.896 0H25.768V40.68H36.784V51.48Z" fill="#2AD2C9"/>
<g filter="url(#filter0_d_1042_2440)">
<path fill-rule="evenodd" clip-rule="evenodd" d="M11.368 18C12.2965 17.0752 12.7501 16.4933 13.384 15.264C12.904 16.272 12.232 17.184 11.368 18Z" fill="#21B1AA"/>
<path d="M13.384 15.264H13.528L25.768 11.48V0H14.896L1 13.032L8.272 20.808L11.368 18C12.2965 17.0752 12.7501 16.4933 13.384 15.264Z" fill="#21B1AA"/>
</g>
<path fill-rule="evenodd" clip-rule="evenodd" d="M2.512 51.48H36.784V40.68H25.768H13.456H2.512V51.48Z" fill="#A0E8E4"/>
<defs>
<filter id="filter0_d_1042_2440" x="0.5" y="0" width="36.7842" height="52.48" filterUnits="userSpaceOnUse" color-interpolation-filters="sRGB">
<feFlood flood-opacity="0" result="BackgroundImageFix"/>
<feColorMatrix in="SourceAlpha" type="matrix" values="0 0 0 0 0 0 0 0 0 0 0 0 0 0 0 0 0 0 127 0" result="hardAlpha"/>
<feOffset dy="0.5"/>
<feGaussianBlur stdDeviation="0.25"/>
<feComposite in2="hardAlpha" operator="out"/>
<feColorMatrix type="matrix" values="0 0 0 0 0 0 0 0 0 0 0 0 0 0 0 0 0 0 0.25 0"/>
<feBlend mode="normal" in2="BackgroundImageFix" result="effect1_dropShadow_1042_2440"/>
<feBlend mode="normal" in="SourceGraphic" in2="effect1_dropShadow_1042_2440" result="shape"/>
</filter>
</defs>
</svg>
