<svg width="37" height="53" viewBox="0 0 37 53" fill="none" xmlns="http://www.w3.org/2000/svg">
<path d="M36.504 41.544H14.256L5.616 52.344H36.504V41.544Z" fill="#21B1AA"/>
<path fill-rule="evenodd" clip-rule="evenodd" d="M0.864 52.344C0.746441 51.6386 0.646877 50.976 0.565308 50.3562C0.642705 50.923 0.740591 51.5717 0.864 52.344ZM0.288 46.8C0.290458 47.0501 0.295388 47.2904 0.303803 47.5292C0.293267 47.2736 0.288 47.0306 0.288 46.8ZM1.944 38.52C2.10847 38.1441 2.27869 37.7777 2.45465 37.421C2.28941 37.7617 2.12085 38.1254 1.944 38.52ZM5.616 32.688C5.02421 33.3807 4.54201 33.9835 4.1193 34.5753C4.58917 33.8978 5.08807 33.2687 5.616 32.688Z" fill="#21B1AA"/>
<g filter="url(#filter0_d_1042_2472)">
<path fill-rule="evenodd" clip-rule="evenodd" d="M16.344 38.16C15.048 39.312 14.352 40.44 14.256 41.544L5.616 52.344H0.864C0.48 50.04 0.288 48.192 0.288 46.8C0.288 43.872 0.84 41.112 1.944 38.52C2.952 36.216 4.176 34.272 5.616 32.688C9.0392 36.2054 11.414 37.3518 16.344 38.16Z" fill="#A0E8E4"/>
</g>
<path fill-rule="evenodd" clip-rule="evenodd" d="M0.864 52.344C0.746441 51.6386 0.646877 50.976 0.565308 50.3562C0.642705 50.923 0.740591 51.5717 0.864 52.344ZM0.288 46.8C0.290458 47.0501 0.295388 47.2904 0.303803 47.5292C0.293267 47.2736 0.288 47.0306 0.288 46.8ZM1.944 38.52C2.10847 38.1441 2.27869 37.7777 2.45465 37.421C2.28941 37.7617 2.12085 38.1254 1.944 38.52ZM5.616 32.688C5.02421 33.3807 4.54201 33.9835 4.1193 34.5753C4.58917 33.8978 5.08807 33.2687 5.616 32.688Z" fill="white"/>
<path d="M11.376 27.576C9.024 29.4 7.104 31.104 5.616 32.688C8.65947 35.8698 11.0152 37.3128 16.344 38.16C17.64 37.008 19.68 35.568 22.464 33.84C25.248 32.064 27.192 30.768 28.296 29.952C33.24 26.112 35.712 21.384 35.712 15.768C35.712 10.632 33.96 6.744 30.456 4.104C26.904 1.368 22.8 0 18.144 0C13.968 0 10.344 1.008 7.272 3.024C4.2 4.992 1.776 7.68 0 11.088L9.36 17.352C10.224 15.72 11.328 14.4 12.672 13.392C14.016 12.384 15.456 11.88 16.992 11.88C18.576 11.88 19.896 12.336 20.952 13.248C22.008 14.112 22.536 15.36 22.536 16.992C22.536 17.904 22.176 18.816 21.456 19.728C20.736 20.64 19.968 21.408 19.152 22.032C18.384 22.656 17.112 23.568 15.336 24.768C13.608 25.92 12.288 26.856 11.376 27.576Z" fill="white"/>
<defs>
<filter id="filter0_d_1042_2472" x="0" y="0" width="36.8039" height="52.344" filterUnits="userSpaceOnUse" color-interpolation-filters="sRGB">
<feFlood flood-opacity="0" result="BackgroundImageFix"/>
<feColorMatrix in="SourceAlpha" type="matrix" values="0 0 0 0 0 0 0 0 0 0 0 0 0 0 0 0 0 0 127 0" result="hardAlpha"/>
<feOffset dx="0.3"/>
<feComposite in2="hardAlpha" operator="out"/>
<feColorMatrix type="matrix" values="0 0 0 0 0 0 0 0 0 0 0 0 0 0 0 0 0 0 0.25 0"/>
<feBlend mode="normal" in2="BackgroundImageFix" result="effect1_dropShadow_1042_2472"/>
<feBlend mode="normal" in="SourceGraphic" in2="effect1_dropShadow_1042_2472" result="shape"/>
</filter>
</defs>
</svg>
