<svg width="37" height="53" viewBox="0 0 37 53" fill="none" xmlns="http://www.w3.org/2000/svg">
<path d="M36.6002 42.1998H14.3522L5.71219 52.9998H36.6002V42.1998Z" fill="#AF2933"/>
<path fill-rule="evenodd" clip-rule="evenodd" d="M0.960192 52.9998C0.842632 52.2944 0.743068 51.6318 0.661499 51.0119C0.738896 51.5788 0.836782 52.2275 0.960192 52.9998ZM0.384191 47.4558C0.38665 47.7059 0.39158 47.9462 0.399994 48.185C0.389459 47.9294 0.384191 47.6863 0.384191 47.4558ZM2.04019 39.1758C2.20466 38.7998 2.37488 38.4335 2.55085 38.0767C2.3856 38.4175 2.21704 38.7812 2.04019 39.1758ZM5.71219 33.3438C5.1204 34.0365 4.63821 34.6393 4.21549 35.2311C4.68536 34.5536 5.18426 33.9245 5.71219 33.3438Z" fill="#AF2933"/>
<g filter="url(#filter0_d_442_2575)">
<path fill-rule="evenodd" clip-rule="evenodd" d="M16.4402 38.8158C15.1442 39.9678 14.4482 41.0958 14.3522 42.1998L5.71219 52.9998H0.960192C0.576191 50.6958 0.384191 48.8478 0.384191 47.4558C0.384191 44.5278 0.936191 41.7678 2.04019 39.1758C3.04819 36.8718 4.27219 34.9278 5.71219 33.3438C9.13539 36.8612 11.5102 38.0075 16.4402 38.8158Z" fill="#CC4930"/>
</g>
<path fill-rule="evenodd" clip-rule="evenodd" d="M0.960192 52.9998C0.842632 52.2944 0.743068 51.6318 0.661499 51.0119C0.738896 51.5788 0.836782 52.2275 0.960192 52.9998ZM0.384191 47.4558C0.38665 47.7059 0.39158 47.9462 0.399994 48.185C0.389459 47.9294 0.384191 47.6863 0.384191 47.4558ZM2.04019 39.1758C2.20466 38.7998 2.37488 38.4335 2.55085 38.0767C2.3856 38.4175 2.21704 38.7812 2.04019 39.1758ZM5.71219 33.3438C5.1204 34.0365 4.63821 34.6393 4.21549 35.2311C4.68536 34.5536 5.18426 33.9245 5.71219 33.3438Z" fill="#F69B36"/>
<path d="M11.4722 28.2318C9.12019 30.0558 7.20019 31.7598 5.71219 33.3438C8.75566 36.5256 11.1114 37.9686 16.4402 38.8158C17.7362 37.6638 19.7762 36.2238 22.5602 34.4958C25.3442 32.7198 27.2882 31.4238 28.3922 30.6078C33.3362 26.7678 35.8082 22.0398 35.8082 16.4238C35.8082 11.2878 34.0562 7.39977 30.5522 4.75976C27.0002 2.02376 22.8962 0.655762 18.2402 0.655762C14.0642 0.655762 10.4402 1.66376 7.36819 3.67976C4.29619 5.64776 1.87219 8.33576 0.0961914 11.7438L9.45619 18.0078C10.3202 16.3758 11.4242 15.0558 12.7682 14.0478C14.1122 13.0398 15.5522 12.5358 17.0882 12.5358C18.6722 12.5358 19.9922 12.9918 21.0482 13.9038C22.1042 14.7678 22.6322 16.0158 22.6322 17.6478C22.6322 18.5598 22.2722 19.4718 21.5522 20.3838C20.8322 21.2958 20.0642 22.0638 19.2482 22.6878C18.4802 23.3118 17.2082 24.2238 15.4322 25.4238C13.7042 26.5758 12.3842 27.5118 11.4722 28.2318Z" fill="#F69B36"/>
<defs>
<filter id="filter0_d_442_2575" x="0.384277" y="33.3438" width="16.3562" height="19.656" filterUnits="userSpaceOnUse" color-interpolation-filters="sRGB">
<feFlood flood-opacity="0" result="BackgroundImageFix"/>
<feColorMatrix in="SourceAlpha" type="matrix" values="0 0 0 0 0 0 0 0 0 0 0 0 0 0 0 0 0 0 127 0" result="hardAlpha"/>
<feOffset dx="0.3"/>
<feComposite in2="hardAlpha" operator="out"/>
<feColorMatrix type="matrix" values="0 0 0 0 0 0 0 0 0 0 0 0 0 0 0 0 0 0 0.25 0"/>
<feBlend mode="normal" in2="BackgroundImageFix" result="effect1_dropShadow_442_2575"/>
<feBlend mode="normal" in="SourceGraphic" in2="effect1_dropShadow_442_2575" result="shape"/>
</filter>
</defs>
</svg>
