<svg width="43" height="53" viewBox="0 0 43 53" fill="none" xmlns="http://www.w3.org/2000/svg">
<path d="M23.552 39.544H13.544H0.728027V31.912L20.6 0.52002H23.984H36.008V29.104H42.128V39.544H36.008V52H23.552V39.544ZM13.544 28.96V29.104H23.552V17.584L23.984 11.824H23.84C23.12 13.888 22.28 15.664 21.32 17.152L13.544 28.96Z" fill="#CC4930"/>
<g filter="url(#filter0_i_442_2593)">
<path fill-rule="evenodd" clip-rule="evenodd" d="M13.544 39.544H0.728027V31.912L13.544 29.104V39.544Z" fill="#8D272F"/>
<path fill-rule="evenodd" clip-rule="evenodd" d="M13.544 39.544H23.552V29.104H13.544V39.544ZM42.128 39.544H36.008V29.104H42.128V39.544Z" fill="#8D272F"/>
</g>
<g filter="url(#filter1_d_442_2593)">
<path fill-rule="evenodd" clip-rule="evenodd" d="M23.552 29.104V17.584L23.984 11.824V0.52002H36.008V29.104V39.544V52H23.552V39.544V29.104Z" fill="#F69B36"/>
</g>
<defs>
<filter id="filter0_i_442_2593" x="0.728027" y="29.104" width="41.6499" height="10.94" filterUnits="userSpaceOnUse" color-interpolation-filters="sRGB">
<feFlood flood-opacity="0" result="BackgroundImageFix"/>
<feBlend mode="normal" in="SourceGraphic" in2="BackgroundImageFix" result="shape"/>
<feColorMatrix in="SourceAlpha" type="matrix" values="0 0 0 0 0 0 0 0 0 0 0 0 0 0 0 0 0 0 127 0" result="hardAlpha"/>
<feOffset dx="0.25" dy="0.5"/>
<feGaussianBlur stdDeviation="0.25"/>
<feComposite in2="hardAlpha" operator="arithmetic" k2="-1" k3="1"/>
<feColorMatrix type="matrix" values="0 0 0 0 0 0 0 0 0 0 0 0 0 0 0 0 0 0 0.25 0"/>
<feBlend mode="normal" in2="shape" result="effect1_innerShadow_442_2593"/>
</filter>
<filter id="filter1_d_442_2593" x="23.5522" y="0.27002" width="12.9556" height="51.98" filterUnits="userSpaceOnUse" color-interpolation-filters="sRGB">
<feFlood flood-opacity="0" result="BackgroundImageFix"/>
<feColorMatrix in="SourceAlpha" type="matrix" values="0 0 0 0 0 0 0 0 0 0 0 0 0 0 0 0 0 0 127 0" result="hardAlpha"/>
<feOffset dx="0.25"/>
<feGaussianBlur stdDeviation="0.125"/>
<feComposite in2="hardAlpha" operator="out"/>
<feColorMatrix type="matrix" values="0 0 0 0 0 0 0 0 0 0 0 0 0 0 0 0 0 0 0.25 0"/>
<feBlend mode="normal" in2="BackgroundImageFix" result="effect1_dropShadow_442_2593"/>
<feBlend mode="normal" in="SourceGraphic" in2="effect1_dropShadow_442_2593" result="shape"/>
</filter>
</defs>
</svg>
