<svg width="166" height="122" viewBox="0 0 166 122" fill="none" xmlns="http://www.w3.org/2000/svg">
<path d="M55.9962 103.767C51.2725 105.739 45.6765 106.404 39.208 105.765C32.7396 105.125 27.3393 103.371 23.0072 100.504C15.2575 95.209 10.6255 86.1289 9.11116 73.2641C8.47532 67.3662 8.49012 61.0536 9.15556 54.3264C9.81247 47.6855 11.0304 41.5356 12.8095 35.8765C16.8149 23.5576 23.1276 15.6473 31.7475 12.1455C36.5574 10.1828 42.1966 9.52133 48.665 10.1612C55.1334 10.801 60.4906 12.5502 64.7365 15.4087C72.5981 20.4538 77.2817 29.4518 78.7875 42.403C79.4233 48.3009 79.4128 54.5703 78.7559 61.2112C78.0904 67.9384 76.8682 74.1315 75.0892 79.7905C71.0837 92.1094 64.7194 100.102 55.9962 103.767ZM55.4695 58.9078C57.244 40.9686 54.2934 31.6194 46.6175 30.8602C38.9416 30.1009 34.2164 38.6908 32.4419 56.6299C30.6418 74.8278 33.5797 84.3063 41.2556 85.0656C48.9314 85.8249 53.6694 77.1056 55.4695 58.9078ZM96.4372 78.8976L86.8639 77.9507L88.0924 65.5313L95.3371 66.2479C95.2746 64.2387 95.4362 62.1645 95.822 60.0254L88.7067 59.3216L89.9352 46.9022L99.2497 47.8236C103.129 38.5404 109.46 31.3285 118.242 26.188C126.946 20.9528 136.645 18.8641 147.34 19.9219C151.393 20.3229 156.379 21.4257 162.297 23.2304L154.712 43.1203C152.296 42.0105 148.932 41.2423 144.62 40.8157C135.305 39.8943 128.289 43.0322 123.571 50.2294L151.515 52.9935L147.699 65.157L119.367 62.3544C118.929 64.14 118.811 66.2184 119.012 68.5897L145.791 71.2387L141.975 83.4022L121.923 81.4186C125.605 89.0984 131.758 93.3648 140.383 94.2179C144.005 94.5762 148.166 94.3346 152.865 93.4931L154.698 114.576C149.525 115.806 143.92 116.123 137.883 115.525C126.93 114.442 117.776 110.575 110.421 103.926C103.145 97.371 98.4832 89.0282 96.4372 78.8976Z" fill="#2EB4B0"/>
<path d="M53.6871 101C48.9634 102.972 43.3674 103.637 36.899 102.997C30.4305 102.358 25.0302 100.604 20.6981 97.7372C12.9484 92.4419 8.31637 83.3618 6.80208 70.497C6.16624 64.5991 6.18103 58.2865 6.84648 51.5594C7.50339 44.9184 8.72136 38.7685 10.5004 33.1094C14.5058 20.7906 20.8185 12.8802 29.4384 9.3784C34.2483 7.41568 39.8875 6.75424 46.3559 7.39409C52.8243 8.03393 58.1815 9.78311 62.4274 12.6416C70.289 17.6867 74.9726 26.6848 76.4784 39.6359C77.1142 45.5338 77.1037 51.8032 76.4468 58.4441C75.7813 65.1713 74.5591 71.3644 72.7801 77.0234C68.7746 89.3423 62.4103 97.3346 53.6871 101ZM53.1604 56.1407C54.935 38.2016 51.9843 28.8524 44.3084 28.0931C36.6325 27.3338 31.9073 35.9237 30.1328 53.8628C28.3327 72.0607 31.2706 81.5392 38.9465 82.2985C46.6223 83.0578 51.3603 74.3385 53.1604 56.1407ZM94.1281 76.1305L84.5549 75.1836L85.7834 62.7642L93.028 63.4808C92.9655 61.4716 93.1271 59.3974 93.5129 57.2583L86.3976 56.5545L87.6261 44.1351L96.9407 45.0565C100.82 35.7733 107.151 28.5614 115.933 23.4209C124.637 18.1857 134.336 16.097 145.031 17.1549C149.084 17.5558 154.07 18.6586 159.988 20.4633L152.403 40.3532C149.987 39.2434 146.623 38.4752 142.311 38.0486C132.996 37.1272 125.98 40.2651 121.262 47.4623L149.206 50.2264L145.39 62.3899L117.058 59.5874C116.62 61.3729 116.502 63.4514 116.702 65.8226L143.482 68.4716L139.666 80.6351L119.614 78.6515C123.296 86.3313 129.449 90.5977 138.073 91.4508C141.696 91.8092 145.856 91.5675 150.555 90.726L152.389 111.809C147.216 113.039 141.611 113.355 135.574 112.758C124.621 111.675 115.467 107.808 108.112 101.159C100.836 94.6039 96.1742 86.2611 94.1281 76.1305Z" fill="#2AD2C9"/>
</svg>
