<svg width="138" height="130" viewBox="0 0 138 130" fill="none" xmlns="http://www.w3.org/2000/svg">
<g clip-path="url(#clip0_2639_2674)">
<g clip-path="url(#clip1_2639_2674)">
<g filter="url(#filter0_d_2639_2674)">
<path d="M25 48.9375C25.0015 56.0977 27.4856 63.0359 32.0291 68.5699C36.5725 74.104 42.8942 77.8915 49.9171 79.2872C50.3171 74.854 51.4547 70.5188 53.2831 66.4605C47.8628 64.629 44.3792 60.471 43.5625 54.5681H40.4688V51.9322H43.3521V49.2469C43.3521 48.9622 43.3521 48.6714 43.3769 48.4116H40.4688V45.7695H43.6306C45.0227 38.0475 51.0679 33.4687 60.1512 33.4687C62.1064 33.4687 63.8018 33.6606 65.2188 33.9947V38.5301C63.5638 38.1619 61.871 37.9916 60.1759 38.0227C54.4896 38.0227 50.6596 40.9061 49.4468 45.7695H61.3083V48.4116H49.057C49.0384 48.6962 49.0384 49.0117 49.0384 49.3211V51.9322H61.3083V54.5743H49.3169C50.047 58.2992 52.2126 60.9474 55.5353 62.1787C58.7933 56.783 63.2738 52.2285 68.6155 48.8827C73.9572 45.5369 80.0105 43.4934 86.2872 42.9171C84.7697 35.4024 80.5172 28.7184 74.3535 24.1597C68.1898 19.6011 60.5536 17.4922 52.924 18.2417C45.2943 18.9912 38.2144 22.5456 33.0556 28.2166C27.8968 33.8875 25.0262 41.2712 25 48.9375ZM124 82.9687C124 91.9944 120.415 100.65 114.032 107.032C107.65 113.415 98.9944 117 89.9688 117C80.9431 117 72.2871 113.415 65.905 107.032C59.5229 100.65 55.9375 91.9944 55.9375 82.9687C55.9375 73.9431 59.5229 65.2871 65.905 58.905C72.2871 52.5229 80.9431 48.9375 89.9688 48.9375C98.9944 48.9375 107.65 52.5229 114.032 58.905C120.415 65.2871 124 73.9431 124 82.9687ZM76.0469 91.1486C76.4738 96.3152 80.6627 100.337 88.1991 100.813V104.625H91.5404V100.789C99.3304 100.257 103.891 96.21 103.891 90.3319C103.891 84.9797 100.407 82.2262 94.1763 80.8031L91.5404 80.1844V69.8141C94.8816 70.1854 97.0101 71.9612 97.5175 74.4238H103.383C102.95 69.4491 98.5632 65.5571 91.5404 65.1302V61.3125H88.1991V65.2044C81.5414 65.8417 77.0121 69.7337 77.0121 75.2406C77.0121 80.1101 80.3781 83.2101 85.984 84.4785L88.1991 85.0044V96.0182C84.7712 95.5232 82.5066 93.6917 81.9931 91.1486H76.0469ZM88.1744 79.4233C84.8826 78.6808 83.1006 77.1711 83.1006 74.8941C83.1006 72.3572 85.0249 70.4452 88.1991 69.8884V79.4171H88.1682L88.1744 79.4233ZM92.023 85.8831C96.0139 86.7802 97.8578 88.2343 97.8578 90.8083C97.8578 93.7412 95.5684 95.7583 91.5466 96.1296V85.7717L92.023 85.8831Z" fill="white"/>
</g>
</g>
<g filter="url(#filter1_d_2639_2674)">
<path d="M51.377 108.54C49.8813 105.868 44.1438 97.943 42.9979 96.5378C42.2756 95.65 41.6265 94.4934 40.4778 94.1072C39.4237 93.7526 38.4087 94.769 38.3055 95.7334C38.1982 96.7659 43.8238 106.654 44.6879 108.213C44.3459 108.233 37.6132 108.386 34.6304 108.087C28.5824 107.478 22.4774 104.985 18.1177 101.023C12.6448 96.0489 10.0417 88.0563 10.8423 80.5447C11.2375 76.8251 12.7232 73.2222 14.5669 69.884C16.1456 67.0264 18.9006 63.6621 19.4128 60.4858C19.4496 60.2691 19.1765 60.0581 18.9625 60.1448C16.3493 61.2036 14.3522 63.9677 12.6729 66.1107C10.6778 68.6585 9.11875 71.5672 7.95486 74.5277C5.4939 80.7859 6.01474 87.9402 8.18801 93.8851C11.9813 104.269 21.805 110.954 33.0221 112.36C35.5732 112.678 38.1654 112.722 40.7581 112.721C37.6808 114.465 34.6021 116.21 31.5293 117.96C28.871 119.474 31.0202 123.341 33.6814 121.827C39.1938 118.688 44.7098 115.56 50.2035 112.388C51.674 111.538 51.8086 109.312 51.377 108.54Z" fill="white"/>
<path d="M101.418 18.0349C107.2 17.7222 113.515 18.7607 118.244 21.8882C124.696 26.1578 128.782 35.106 128.135 43.0593C127.843 46.6855 126.801 50.2014 125.594 53.6764C124.594 56.5618 122.696 60.1725 122.825 63.1884C122.835 63.4131 123.149 63.5464 123.34 63.4259C125.67 61.9467 127.05 58.9204 128.297 56.5872C129.789 53.8033 130.878 50.7296 131.636 47.7109C133.255 41.2619 132.297 34.8314 129.701 29.0432C124.796 18.1183 113.916 12.9859 101.825 13.5766C99.1989 13.7061 96.5718 14.1189 93.9561 14.5663C96.1142 12.8776 98.2747 11.1916 100.43 9.49818C102.83 7.61308 99.8756 4.31821 97.4855 6.19468C93.2401 9.5277 84.329 16.5291 84.1564 16.7171C83.8149 17.0354 82.2804 18.3957 83.6031 19.8799C85.132 21.5977 88.905 25.4966 90.5067 27.092C91.961 28.5404 93.3556 30.0835 94.882 31.4569C95.4987 32.0103 96.6907 33.3958 97.5216 32.7556C98.8524 31.7307 97.389 29.1568 96.9321 28.5204C95.6562 26.7403 91.4137 20.8601 90.5568 19.7083C90.9703 19.613 91.3746 19.521 91.7495 19.4545C94.9528 18.8779 98.1901 18.2099 101.418 18.0349Z" fill="white"/>
</g>
</g>
<defs>
<filter id="filter0_d_2639_2674" x="24" y="17.0934" width="103" height="102.907" filterUnits="userSpaceOnUse" color-interpolation-filters="sRGB">
<feFlood flood-opacity="0" result="BackgroundImageFix"/>
<feColorMatrix in="SourceAlpha" type="matrix" values="0 0 0 0 0 0 0 0 0 0 0 0 0 0 0 0 0 0 127 0" result="hardAlpha"/>
<feOffset dx="1" dy="1"/>
<feGaussianBlur stdDeviation="1"/>
<feComposite in2="hardAlpha" operator="out"/>
<feColorMatrix type="matrix" values="0 0 0 0 0 0 0 0 0 0 0 0 0 0 0 0 0 0 0.25 0"/>
<feBlend mode="normal" in2="BackgroundImageFix" result="effect1_dropShadow_2639_2674"/>
<feBlend mode="normal" in="SourceGraphic" in2="effect1_dropShadow_2639_2674" result="shape"/>
</filter>
<filter id="filter1_d_2639_2674" x="2.32227" y="5.63574" width="134.109" height="124.536" filterUnits="userSpaceOnUse" color-interpolation-filters="sRGB">
<feFlood flood-opacity="0" result="BackgroundImageFix"/>
<feColorMatrix in="SourceAlpha" type="matrix" values="0 0 0 0 0 0 0 0 0 0 0 0 0 0 0 0 0 0 127 0" result="hardAlpha"/>
<feOffset dy="4"/>
<feGaussianBlur stdDeviation="2"/>
<feComposite in2="hardAlpha" operator="out"/>
<feColorMatrix type="matrix" values="0 0 0 0 0 0 0 0 0 0 0 0 0 0 0 0 0 0 0.25 0"/>
<feBlend mode="normal" in2="BackgroundImageFix" result="effect1_dropShadow_2639_2674"/>
<feBlend mode="normal" in="SourceGraphic" in2="effect1_dropShadow_2639_2674" result="shape"/>
</filter>
<clipPath id="clip0_2639_2674">
<rect width="138" height="130" fill="white"/>
</clipPath>
<clipPath id="clip1_2639_2674">
<rect width="99" height="111" fill="white" transform="translate(25 12)"/>
</clipPath>
</defs>
</svg>
