<svg width="104" height="83" viewBox="0 0 104 83" fill="none" xmlns="http://www.w3.org/2000/svg">
<g filter="url(#filter0_d)">
<path d="M0 72.3692C0 77.1153 3.80729 80.9658 8.5 80.9658H93.5C98.1927 80.9658 102 77.1153 102 72.3692V40.8484H0V72.3692ZM34 60.1907C34 59.0087 34.9562 58.0416 36.125 58.0416H60.2083C61.3771 58.0416 62.3333 59.0087 62.3333 60.1907V67.3545C62.3333 68.5366 61.3771 69.5037 60.2083 69.5037H36.125C34.9562 69.5037 34 68.5366 34 67.3545V60.1907ZM11.3333 60.1907C11.3333 59.0087 12.2896 58.0416 13.4583 58.0416H26.2083C27.3771 58.0416 28.3333 59.0087 28.3333 60.1907V67.3545C28.3333 68.5366 27.3771 69.5037 26.2083 69.5037H13.4583C12.2896 69.5037 11.3333 68.5366 11.3333 67.3545V60.1907ZM102 9.32755V17.9241H0V9.32755C0 4.58151 3.80729 0.730957 8.5 0.730957H93.5C98.1927 0.730957 102 4.58151 102 9.32755Z" fill="#F69B36"/>
<path opacity="0.5" d="M102 19H0V41H102V19Z" fill="#F69B36"/>
<path d="M102 17H0V19H102V17Z" fill="#F69B36"/>
</g>
<defs>
<filter id="filter0_d" x="0" y="0.730957" width="104" height="82.2349" filterUnits="userSpaceOnUse" color-interpolation-filters="sRGB">
<feFlood flood-opacity="0" result="BackgroundImageFix"/>
<feColorMatrix in="SourceAlpha" type="matrix" values="0 0 0 0 0 0 0 0 0 0 0 0 0 0 0 0 0 0 127 0" result="hardAlpha"/>
<feOffset dx="1" dy="1"/>
<feGaussianBlur stdDeviation="0.5"/>
<feComposite in2="hardAlpha" operator="out"/>
<feColorMatrix type="matrix" values="0 0 0 0 0 0 0 0 0 0 0 0 0 0 0 0 0 0 0.08 0"/>
<feBlend mode="normal" in2="BackgroundImageFix" result="effect1_dropShadow"/>
<feBlend mode="normal" in="SourceGraphic" in2="effect1_dropShadow" result="shape"/>
</filter>
</defs>
</svg>
