<svg width="189" height="56" viewBox="0 0 189 56" fill="none" xmlns="http://www.w3.org/2000/svg">
<path fill-rule="evenodd" clip-rule="evenodd" d="M181.997 56H7.00258C3.14316 56 0 52.8439 0 49V7C0 3.14214 3.14316 0 7.00258 0H181.997C185.853 0 189 3.14214 189 7V49C189 52.8439 185.853 56 181.997 56Z" fill="#354552"/>
<path fill-rule="evenodd" clip-rule="evenodd" d="M181.997 1.1207C185.234 1.1207 187.884 3.76359 187.884 7V49C187.884 52.2364 185.252 54.8793 181.997 54.8793H7.00258C3.76554 54.8793 1.1161 52.2364 1.1161 49V7C1.1161 3.76359 3.74815 1.1207 7.00258 1.1207C7.00258 1.1207 181.997 1.1207 181.997 1.1207ZM181.997 0H7.00258C3.14316 0 0 3.15611 0 7V49C0 52.8579 3.14316 56 7.00258 56H181.997C185.853 56 189 52.8579 189 49V7C189 3.15611 185.853 0 181.997 0Z" fill="#A6A6A6"/>
<path d="M99.5658 18.5247C98.3037 18.5247 97.2397 18.0813 96.3983 17.2085C95.5638 16.3601 95.0979 15.1905 95.1188 13.9965C95.1188 12.7222 95.5499 11.6434 96.3983 10.788C97.2362 9.91519 98.3002 9.4718 99.5623 9.4718C100.811 9.4718 101.874 9.91519 102.73 10.788C103.578 11.6713 104.009 12.7501 104.009 13.9965C103.995 15.2743 103.564 16.3531 102.73 17.205C101.892 18.0848 100.828 18.5247 99.5658 18.5247ZM62.0113 18.5247C60.7769 18.5247 59.706 18.0883 58.8299 17.2259C57.9606 16.3671 57.519 15.2813 57.519 14C57.519 12.7187 57.9606 11.6329 58.8299 10.774C59.6887 9.9117 60.7596 9.47529 62.0113 9.47529C62.6232 9.47529 63.2178 9.59749 63.788 9.84537C64.3478 10.0863 64.8033 10.4144 65.1405 10.8159L65.224 10.9172L64.2817 11.8459L64.1844 11.7307C63.6524 11.0952 62.9396 10.7845 61.9974 10.7845C61.1559 10.7845 60.4223 11.0848 59.8173 11.6783C59.2088 12.2753 58.8994 13.0573 58.8994 14.0035C58.8994 14.9496 59.2088 15.7317 59.8173 16.3287C60.4223 16.9222 61.1559 17.2224 61.9974 17.2224C62.8944 17.2224 63.6489 16.9222 64.2365 16.3287C64.5842 15.9795 64.7998 15.4908 64.8763 14.8728H61.8548V13.5671H66.1732L66.1906 13.6858C66.2218 13.9057 66.2531 14.1326 66.2531 14.3421C66.2531 15.5466 65.8915 16.5207 65.1753 17.2399C64.3617 18.0917 63.2977 18.5247 62.0113 18.5247ZM111.944 18.3396H110.612L106.534 11.7865L106.568 12.9666V18.3361H105.237V9.66033H106.756L106.798 9.72667L110.633 15.8992L110.598 14.7227V9.66033H111.944V18.3396V18.3396ZM89.5591 18.3396H88.2101V10.9661H85.8701V9.66033H91.8956V10.9661H89.5557V18.3396H89.5591ZM84.7714 18.3396H83.4258V9.66033H84.7714V18.3396ZM77.209 18.3396H75.8634V10.9661H73.5234V9.66033H79.549V10.9661H77.209V18.3396ZM72.6716 18.3257H67.5118V9.66033H72.6716V10.9661H68.8609V13.3471H72.2996V14.6389H68.8609V17.0199H72.6716V18.3257ZM97.3857 16.3112C97.9873 16.9152 98.7174 17.2189 99.5658 17.2189C100.439 17.2189 101.151 16.9222 101.746 16.3112C102.337 15.7177 102.636 14.9391 102.636 14C102.636 13.0608 102.337 12.2788 101.749 11.6888C101.148 11.0848 100.414 10.781 99.5693 10.781C98.6966 10.781 97.9838 11.0778 97.3927 11.6888C96.8016 12.2823 96.5026 13.0608 96.5026 14C96.5026 14.9391 96.7981 15.7212 97.3857 16.3112Z" fill="white"/>
<path fill-rule="evenodd" clip-rule="evenodd" d="M94.9937 30.4578C91.708 30.4578 89.0446 32.961 89.0446 36.4139C89.0446 39.8354 91.7254 42.37 94.9937 42.37C98.2794 42.37 100.943 39.8493 100.943 36.4139C100.943 32.961 98.2794 30.4578 94.9937 30.4578ZM94.9937 40.0099C93.1961 40.0099 91.6489 38.5157 91.6489 36.3999C91.6489 34.2528 93.1996 32.79 94.9937 32.79C96.7913 32.79 98.3385 34.2528 98.3385 36.3999C98.342 38.5296 96.7913 40.0099 94.9937 40.0099ZM82.0143 30.4578C78.7285 30.4578 76.0652 32.961 76.0652 36.4139C76.0652 39.8354 78.7459 42.37 82.0143 42.37C85.3 42.37 87.9633 39.8493 87.9633 36.4139C87.9633 32.961 85.2965 30.4578 82.0143 30.4578ZM82.0143 40.0099C80.2167 40.0099 78.6694 38.5157 78.6694 36.3999C78.6694 34.2528 80.2201 32.79 82.0143 32.79C83.8118 32.79 85.3591 34.2528 85.3591 36.3999C85.3591 38.5296 83.8118 40.0099 82.0143 40.0099ZM66.5696 32.2768V34.7975H72.5952C72.4109 36.2114 71.945 37.2553 71.2322 37.971C70.3491 38.8578 68.9861 39.8214 66.5835 39.8214C62.8806 39.8214 59.9843 36.8189 59.9843 33.1007C59.9843 29.3825 62.8806 26.38 66.5835 26.38C68.5828 26.38 70.0396 27.1725 71.121 28.185L72.9012 26.3975C71.3991 24.9521 69.3999 23.8453 66.5975 23.8453C61.5176 23.8453 57.2549 28 57.2549 33.0867C57.2549 38.1875 61.5142 42.3281 66.5975 42.3281C69.3408 42.3281 71.3991 41.4274 73.0263 39.7306C74.6848 38.0653 75.2099 35.7157 75.2099 33.8199C75.2099 33.2299 75.1647 32.6992 75.0708 32.2488H66.5662C66.5696 32.2453 66.5696 32.2768 66.5696 32.2768ZM129.742 34.2389C129.245 32.9017 127.743 30.4438 124.663 30.4438C121.61 30.4438 119.072 32.8563 119.072 36.3999C119.072 39.7446 121.582 42.3561 124.958 42.3561C127.67 42.3561 129.249 40.6907 129.899 39.7132L127.886 38.3586C127.218 39.3536 126.29 40.0064 124.972 40.0064C123.64 40.0064 122.708 39.399 122.09 38.2014L130.021 34.9022C130.021 34.9057 129.742 34.2389 129.742 34.2389ZM121.655 36.2289C121.592 33.9281 123.435 32.7586 124.753 32.7586C125.793 32.7586 126.658 33.2718 126.954 34.0189L121.655 36.2289ZM115.212 41.9999H117.816V24.5017H115.212V41.9999ZM110.936 31.781H110.842C110.254 31.0793 109.138 30.4438 107.712 30.4438C104.754 30.4438 102.028 33.0588 102.028 36.4174C102.028 39.762 104.74 42.3456 107.712 42.3456C109.121 42.3456 110.254 41.7067 110.842 40.991H110.936V41.8463C110.936 44.1192 109.726 45.3446 107.775 45.3446C106.179 45.3446 105.188 44.1925 104.785 43.2289L102.521 44.1785C103.172 45.7496 104.907 47.6942 107.772 47.6942C110.824 47.6942 113.411 45.8892 113.411 41.4867V30.8H110.949V31.781C110.953 31.781 110.936 31.781 110.936 31.781ZM107.945 40.0099C106.148 40.0099 104.646 38.5017 104.646 36.4174C104.646 34.3157 106.148 32.7935 107.945 32.7935C109.726 32.7935 111.106 34.3331 111.106 36.4174C111.123 38.5017 109.729 40.0099 107.945 40.0099ZM141.936 24.5017H135.709V41.9999H138.313V35.3735H141.94C144.822 35.3735 147.656 33.2753 147.656 29.9446C147.656 26.6139 144.832 24.5017 141.936 24.5017ZM142.013 32.9296H138.31V26.9246H142.013C143.963 26.9246 145.065 28.5411 145.065 29.9271C145.065 31.2992 143.949 32.9296 142.013 32.9296ZM158.093 30.4264C156.202 30.4264 154.251 31.2678 153.445 33.1007L155.753 34.0643C156.251 33.1007 157.162 32.7725 158.125 32.7725C159.474 32.7725 160.837 33.5825 160.868 35.0279V35.2129C160.402 34.9476 159.38 34.5426 158.156 34.5426C155.663 34.5426 153.135 35.9112 153.135 38.4773C153.135 40.8269 155.18 42.3351 157.457 42.3351C159.206 42.3351 160.169 41.5426 160.771 40.6244H160.865V41.979H163.375V35.2758C163.375 32.1546 161.066 30.4264 158.093 30.4264ZM157.767 40.0099C156.915 40.0099 155.722 39.591 155.722 38.5157C155.722 37.161 157.21 36.6478 158.479 36.6478C159.627 36.6478 160.169 36.8957 160.851 37.2379C160.663 38.8089 159.342 39.996 157.767 40.0099ZM172.533 30.8L169.543 38.39H169.449L166.351 30.8H163.549L168.197 41.4099L165.548 47.3067H168.26L175.412 30.8H172.533ZM149.092 41.9999H151.696V24.5017H149.092V41.9999Z" fill="white"/>
<path fill-rule="evenodd" clip-rule="evenodd" d="M14.5474 10.5471C14.1441 10.9836 13.9111 11.6504 13.9111 12.5232V43.4803C13.9111 44.3531 14.1441 45.02 14.5613 45.4389L14.6691 45.5332L31.9426 28.1885V27.801L14.6552 10.4529L14.5474 10.5471Z" fill="url(#paint0_linear_760_861)"/>
<path fill-rule="evenodd" clip-rule="evenodd" d="M37.6903 33.9875L31.929 28.2025V27.7975L37.6903 22.0125L37.8154 22.0893L44.6303 25.9785C46.5808 27.0818 46.5808 28.9042 44.6303 30.0214L37.8154 33.9107L37.6903 33.9875Z" fill="url(#paint1_linear_760_861)"/>
<path fill-rule="evenodd" clip-rule="evenodd" d="M37.8153 33.9107L31.9289 28L14.5476 45.4529C15.1839 46.1372 16.2513 46.214 17.4439 45.5471L37.8153 33.9107Z" fill="url(#paint2_linear_760_861)"/>
<path fill-rule="evenodd" clip-rule="evenodd" d="M37.8153 22.0893L17.4439 10.4703C16.2513 9.78605 15.1804 9.88032 14.5476 10.5646L31.9289 28L37.8153 22.0893Z" fill="url(#paint3_linear_760_861)"/>
<path opacity="0.2" fill-rule="evenodd" clip-rule="evenodd" d="M37.6902 33.785L17.4578 45.3272C16.3278 45.9801 15.3195 45.9347 14.6693 45.3411L14.5615 45.4494L14.6693 45.5436C15.3195 46.1337 16.3278 46.1825 17.4578 45.5297L37.8293 33.9107L37.6902 33.785Z" fill="black"/>
<path opacity="0.12" fill-rule="evenodd" clip-rule="evenodd" d="M44.6302 29.819L37.6729 33.785L37.798 33.9107L44.6128 30.0214C45.5899 29.4628 46.0697 28.7297 46.0697 28C46.0106 28.6703 45.5134 29.3057 44.6302 29.819Z" fill="black"/>
<path opacity="0.25" fill-rule="evenodd" clip-rule="evenodd" d="M17.4437 10.6728L44.63 26.1811C45.5131 26.6803 46.0103 27.3332 46.0868 28C46.0868 27.2703 45.607 26.5372 44.63 25.9786L17.4437 10.4703C15.4931 9.34964 13.9111 10.2853 13.9111 12.5232V12.7257C13.9111 10.4843 15.4931 9.5661 17.4437 10.6728Z" fill="white"/>
<defs>
<linearGradient id="paint0_linear_760_861" x1="30.3932" y1="12.1892" x2="2.70902" y2="19.5354" gradientUnits="userSpaceOnUse">
<stop stop-color="#00A0FF"/>
<stop offset="0.00657" stop-color="#00A1FF"/>
<stop offset="0.2601" stop-color="#00BEFF"/>
<stop offset="0.5122" stop-color="#00D2FF"/>
<stop offset="0.7604" stop-color="#00DFFF"/>
<stop offset="1" stop-color="#00E3FF"/>
</linearGradient>
<linearGradient id="paint1_linear_760_861" x1="47.174" y1="28" x2="13.4373" y2="28" gradientUnits="userSpaceOnUse">
<stop stop-color="#FFE000"/>
<stop offset="0.4087" stop-color="#FFBD00"/>
<stop offset="0.7754" stop-color="#FFA500"/>
<stop offset="1" stop-color="#FF9C00"/>
</linearGradient>
<linearGradient id="paint2_linear_760_861" x1="34.6145" y1="31.2163" x2="12.2666" y2="68.6753" gradientUnits="userSpaceOnUse">
<stop stop-color="#FF3A44"/>
<stop offset="1" stop-color="#C31162"/>
</linearGradient>
<linearGradient id="paint3_linear_760_861" x1="10.1708" y1="0.250325" x2="20.1411" y2="16.9802" gradientUnits="userSpaceOnUse">
<stop stop-color="#32A071"/>
<stop offset="0.0685" stop-color="#2DA771"/>
<stop offset="0.4762" stop-color="#15CF74"/>
<stop offset="0.8009" stop-color="#06E775"/>
<stop offset="1" stop-color="#00F076"/>
</linearGradient>
</defs>
</svg>
