<svg width="358" height="128" viewBox="0 0 358 128" fill="none" xmlns="http://www.w3.org/2000/svg">
<path d="M142.055 13.1721V26.7511H160.025L159.943 86.4336H173.766L173.847 26.7511H191.817V13.1721H142.055Z" fill="#364653"/>
<path d="M245.072 13.2534V20.2462H258.814V13.2534H245.072ZM245.072 58.9504C245.072 67.1628 238.486 73.9929 230.273 73.9929C222.142 73.9929 215.475 67.1628 215.475 58.9504V13.1721H201.814V58.9504C201.814 74.6434 214.58 87.4093 230.273 87.4093C237.835 87.4093 245.072 84.4008 250.52 79.1156C255.887 73.749 258.814 66.5936 258.895 58.9504V34.313H245.154L245.072 58.9504ZM245.072 23.336V31.2232H258.814V23.336H245.072Z" fill="#364653"/>
<path d="M71.8794 42.0377C67.5699 37.6469 61.7967 35.1262 55.7797 35.1262C52.7712 35.1262 49.844 35.7767 46.9167 37.0777C44.1521 38.3787 41.6315 40.1675 39.5174 42.4442C39.4361 42.5255 39.4361 42.5255 39.2735 42.6069C39.1921 42.5255 39.1108 42.5255 39.1108 42.4442C36.8341 40.1675 34.3948 38.3787 31.7115 37.0777C28.8656 35.7767 25.8571 35.1262 22.8485 35.1262C19.4334 35.1262 16.0997 36.3459 12.8472 39.5983V36.0206H0V85.3766H12.8472V58.9504C12.8472 53.2586 17.4007 48.2173 22.8485 48.2173C28.2964 48.2173 32.8498 53.1773 32.8498 59.0317V85.4579H45.6971V59.0317C45.6971 53.1773 50.2505 48.2986 55.7797 48.2986C61.1463 48.2986 65.781 53.3399 65.6997 59.113V85.5392H78.5469V59.113C78.5469 52.6895 76.1889 46.6724 71.8794 42.0377Z" fill="#364653"/>
<path d="M96.1952 95.8656L93.1867 103.59H106.603L109.612 95.8656H96.1952ZM88.9585 114.161H102.456L105.383 106.68H91.967L88.9585 114.161ZM118.881 36.1831L106.928 66.8375L95.2194 36.1018H81.3965L100.179 85.5391L97.3335 92.6944H110.669L132.541 36.1018L118.881 36.1831Z" fill="#364653"/>
<path d="M275.879 26.182V31.2233H301.899V12.8469H290.19C282.303 12.8469 276.204 18.864 275.879 26.182Z" fill="#4EC2BF"/>
<path d="M343.294 12.9285H305.566L305.484 82.6935H327.764V31.3048H357.524V26.1822C357.198 18.7829 351.181 12.9285 343.294 12.9285Z" fill="#4EC2BF"/>
<path d="M357.6 34.9636H331.58V47.8108H357.6V34.9636Z" fill="#364653"/>
<path d="M357.6 51.47H331.58V64.3172H357.6V51.47Z" fill="#364653"/>
<path d="M301.899 34.8826H275.879V47.7298H301.899V34.8826Z" fill="#364653"/>
<path d="M301.899 51.3889H275.879V64.2361H301.899V51.3889Z" fill="#364653"/>
<path d="M331.58 67.9761V85.7019C331.743 88.0599 333.776 90.0114 336.215 90.0114C338.654 90.0114 340.768 88.2226 340.85 85.7832V82.6934H342.638C351.583 82.856 357.356 76.0259 357.6 68.7892V67.9761H331.58Z" fill="#364653"/>
<path d="M301.822 67.9761V85.7019C301.66 88.0599 299.627 90.0114 297.188 90.0114C294.748 90.0114 292.716 88.1413 292.553 85.7832V82.6934H290.764C281.82 82.856 276.047 76.0259 275.803 68.7892V67.9761H301.822Z" fill="#364653"/>
<path d="M330.601 0H302.793C300.191 0 298.158 2.03278 298.158 4.63474C298.158 7.23671 300.272 9.26949 302.793 9.26949H303.769C303.769 6.74884 305.883 4.63474 308.403 4.63474H311.168H322.308H325.072C327.674 4.63474 329.707 6.66753 329.707 9.26949H330.601C333.203 9.26949 335.236 7.23671 335.236 4.63474C335.236 2.03278 333.203 0 330.601 0Z" fill="#364653"/>
<path d="M157.514 122V104.96H167.306V107.624H160.61V112.448H166.25V115.112H160.61V122H157.514ZM172.264 113.36C172.264 110.896 173.088 108.832 174.736 107.168C176.4 105.504 178.512 104.672 181.072 104.672C183.632 104.672 185.736 105.504 187.384 107.168C189.048 108.832 189.88 110.896 189.88 113.36C189.88 115.888 189.048 118.008 187.384 119.72C185.736 121.432 183.632 122.288 181.072 122.288C178.512 122.288 176.4 121.432 174.736 119.72C173.088 118.008 172.264 115.888 172.264 113.36ZM175.456 113.36C175.456 115.104 175.984 116.56 177.04 117.728C178.112 118.88 179.456 119.456 181.072 119.456C182.688 119.456 184.024 118.88 185.08 117.728C186.152 116.56 186.688 115.104 186.688 113.36C186.688 111.696 186.152 110.304 185.08 109.184C184.024 108.064 182.688 107.504 181.072 107.504C179.456 107.504 178.112 108.064 177.04 109.184C175.984 110.304 175.456 111.696 175.456 113.36ZM196.367 122V104.96H201.983C203.423 104.96 204.495 105.112 205.199 105.416C206.095 105.784 206.799 106.368 207.311 107.168C207.823 107.968 208.079 108.936 208.079 110.072C208.079 111.112 207.823 112.064 207.311 112.928C206.799 113.776 206.103 114.376 205.223 114.728V114.776C205.367 114.952 205.551 115.248 205.775 115.664L209.279 122H205.799L202.439 115.64H199.463V122H196.367ZM199.463 112.952H202.247C203.079 112.952 203.735 112.712 204.215 112.232C204.695 111.736 204.935 111.072 204.935 110.24C204.935 109.056 204.487 108.28 203.591 107.912C203.159 107.72 202.535 107.624 201.719 107.624H199.463V112.952ZM224.438 122V104.96H230.51C232.094 104.96 233.366 105.352 234.326 106.136C235.302 106.904 235.79 107.976 235.79 109.352C235.79 110.152 235.606 110.872 235.238 111.512C234.87 112.152 234.366 112.648 233.726 113V113.048C234.622 113.304 235.302 113.808 235.766 114.56C236.246 115.312 236.486 116.144 236.486 117.056C236.486 118.672 235.926 119.904 234.806 120.752C233.686 121.584 232.286 122 230.606 122H224.438ZM227.534 111.92H230.534C231.19 111.92 231.702 111.72 232.07 111.32C232.454 110.904 232.646 110.376 232.646 109.736C232.646 109.112 232.454 108.608 232.07 108.224C231.702 107.824 231.174 107.624 230.486 107.624H227.534V111.92ZM227.534 119.336H230.846C231.614 119.336 232.214 119.112 232.646 118.664C233.094 118.2 233.318 117.6 233.318 116.864C233.318 116.144 233.094 115.56 232.646 115.112C232.214 114.648 231.614 114.416 230.846 114.416H227.534V119.336ZM242.794 115.88V104.96H245.89V115.856C245.89 116.992 246.226 117.88 246.898 118.52C247.586 119.144 248.506 119.456 249.658 119.456C250.81 119.456 251.722 119.144 252.394 118.52C253.082 117.88 253.426 116.992 253.426 115.856V104.96H256.522V115.88C256.522 117.784 255.89 119.328 254.626 120.512C253.378 121.696 251.73 122.288 249.682 122.288C247.618 122.288 245.954 121.696 244.69 120.512C243.426 119.328 242.794 117.784 242.794 115.88ZM262.583 119.96L264.263 117.632C264.823 118.128 265.479 118.552 266.231 118.904C266.999 119.256 267.751 119.432 268.487 119.432C269.255 119.432 269.863 119.256 270.311 118.904C270.759 118.536 270.983 118.064 270.983 117.488C270.983 116.896 270.711 116.384 270.167 115.952C269.623 115.52 268.959 115.144 268.175 114.824C267.407 114.504 266.631 114.152 265.847 113.768C265.063 113.384 264.399 112.84 263.855 112.136C263.311 111.432 263.039 110.592 263.039 109.616C263.039 108.144 263.583 106.952 264.671 106.04C265.775 105.128 267.167 104.672 268.847 104.672C270.847 104.672 272.511 105.28 273.839 106.496L272.471 109.016C271.991 108.584 271.407 108.232 270.719 107.96C270.047 107.672 269.383 107.528 268.727 107.528C267.943 107.528 267.311 107.704 266.831 108.056C266.367 108.408 266.135 108.88 266.135 109.472C266.135 110.048 266.407 110.544 266.951 110.96C267.495 111.376 268.151 111.736 268.919 112.04C269.703 112.344 270.487 112.688 271.271 113.072C272.055 113.44 272.719 113.976 273.263 114.68C273.807 115.384 274.079 116.24 274.079 117.248C274.079 118.688 273.575 119.888 272.567 120.848C271.559 121.808 270.175 122.288 268.415 122.288C267.327 122.288 266.271 122.088 265.247 121.688C264.223 121.288 263.335 120.712 262.583 119.96ZM280.526 122V104.96H283.622V122H280.526ZM291.105 122V104.96H294.201L300.657 114.8C300.849 115.104 301.057 115.48 301.281 115.928C301.521 116.36 301.713 116.72 301.857 117.008L302.073 117.44H302.121C302.009 116.352 301.953 115.472 301.953 114.8V104.96H305.025V122H301.953L295.497 112.184C295.305 111.88 295.089 111.512 294.849 111.08C294.625 110.632 294.441 110.264 294.297 109.976L294.081 109.544H294.033C294.145 110.632 294.201 111.512 294.201 112.184V122H291.105ZM312.535 122V104.96H322.735V107.624H315.631V112.088H321.367V114.752H315.631V119.336H323.119V122H312.535ZM328.312 119.96L329.992 117.632C330.552 118.128 331.208 118.552 331.96 118.904C332.728 119.256 333.48 119.432 334.216 119.432C334.984 119.432 335.592 119.256 336.04 118.904C336.488 118.536 336.712 118.064 336.712 117.488C336.712 116.896 336.44 116.384 335.896 115.952C335.352 115.52 334.688 115.144 333.904 114.824C333.136 114.504 332.36 114.152 331.576 113.768C330.792 113.384 330.128 112.84 329.584 112.136C329.04 111.432 328.768 110.592 328.768 109.616C328.768 108.144 329.312 106.952 330.4 106.04C331.504 105.128 332.896 104.672 334.576 104.672C336.576 104.672 338.24 105.28 339.568 106.496L338.2 109.016C337.72 108.584 337.136 108.232 336.448 107.96C335.776 107.672 335.112 107.528 334.456 107.528C333.672 107.528 333.04 107.704 332.56 108.056C332.096 108.408 331.864 108.88 331.864 109.472C331.864 110.048 332.136 110.544 332.68 110.96C333.224 111.376 333.88 111.736 334.648 112.04C335.432 112.344 336.216 112.688 337 113.072C337.784 113.44 338.448 113.976 338.992 114.68C339.536 115.384 339.808 116.24 339.808 117.248C339.808 118.688 339.304 119.888 338.296 120.848C337.288 121.808 335.904 122.288 334.144 122.288C333.056 122.288 332 122.088 330.976 121.688C329.952 121.288 329.064 120.712 328.312 119.96ZM345.031 119.96L346.711 117.632C347.271 118.128 347.927 118.552 348.679 118.904C349.447 119.256 350.199 119.432 350.935 119.432C351.703 119.432 352.311 119.256 352.759 118.904C353.207 118.536 353.431 118.064 353.431 117.488C353.431 116.896 353.159 116.384 352.615 115.952C352.071 115.52 351.407 115.144 350.623 114.824C349.855 114.504 349.079 114.152 348.295 113.768C347.511 113.384 346.847 112.84 346.303 112.136C345.759 111.432 345.487 110.592 345.487 109.616C345.487 108.144 346.031 106.952 347.119 106.04C348.223 105.128 349.615 104.672 351.295 104.672C353.295 104.672 354.959 105.28 356.287 106.496L354.919 109.016C354.439 108.584 353.855 108.232 353.167 107.96C352.495 107.672 351.831 107.528 351.175 107.528C350.391 107.528 349.759 107.704 349.279 108.056C348.815 108.408 348.583 108.88 348.583 109.472C348.583 110.048 348.855 110.544 349.399 110.96C349.943 111.376 350.599 111.736 351.367 112.04C352.151 112.344 352.935 112.688 353.719 113.072C354.503 113.44 355.167 113.976 355.711 114.68C356.255 115.384 356.527 116.24 356.527 117.248C356.527 118.688 356.023 119.888 355.015 120.848C354.007 121.808 352.623 122.288 350.863 122.288C349.775 122.288 348.719 122.088 347.695 121.688C346.671 121.288 345.783 120.712 345.031 119.96Z" fill="#354552"/>
</svg>
