<svg width="174" height="56" viewBox="0 0 174 56" fill="none" xmlns="http://www.w3.org/2000/svg">
<g filter="url(#filter0_i_686_358)">
<path d="M68.959 6.39453V12.9865H77.6825L77.6431 41.9597H84.3535L84.393 12.9865H93.1165V6.39453H68.959Z" fill="#354552" fill-opacity="0.2"/>
<path d="M118.971 6.434V9.82868H125.642V6.434H118.971ZM118.971 28.6178C118.971 32.6046 115.774 35.9203 111.787 35.9203C107.84 35.9203 104.603 32.6046 104.603 28.6178V6.39453H97.9717V28.6178C97.9717 36.2361 104.169 42.4333 111.787 42.4333C115.458 42.4333 118.971 40.9728 121.616 38.4071C124.221 35.8019 125.642 32.3283 125.682 28.6178V16.6575H119.011L118.971 28.6178ZM118.971 11.3286V15.1575H125.642V11.3286H118.971Z" fill="#354552" fill-opacity="0.2"/>
<path d="M34.8942 20.4074C32.8021 18.2759 29.9995 17.0522 27.0785 17.0522C25.618 17.0522 24.197 17.368 22.776 17.9996C21.4339 18.6312 20.2102 19.4996 19.1839 20.6048C19.1444 20.6443 19.1444 20.6443 19.0655 20.6838C19.026 20.6443 18.9865 20.6443 18.9865 20.6048C17.8813 19.4996 16.6971 18.6312 15.3945 17.9996C14.0129 17.368 12.5524 17.0522 11.0919 17.0522C9.43406 17.0522 7.81567 17.6443 6.23674 19.2233V17.4864H0V41.4465H6.23674V28.6178C6.23674 25.8547 8.44723 23.4074 11.0919 23.4074C13.7366 23.4074 15.9471 25.8152 15.9471 28.6573V41.486H22.1839V28.6573C22.1839 25.8152 24.3944 23.4469 27.0785 23.4469C29.6837 23.4469 31.9337 25.8942 31.8942 28.6968V41.5255H38.131V28.6968C38.131 25.5784 36.9863 22.6574 34.8942 20.4074Z" fill="#354552" fill-opacity="0.2"/>
<path d="M46.6968 46.5385L45.2363 50.2884H51.7493L53.2098 46.5385H46.6968ZM43.1837 55.4199H49.7362L51.1572 51.7884H44.6442L43.1837 55.4199ZM57.7098 17.5654L51.9072 32.4467L46.2231 17.5259H39.5127L48.631 41.5254L47.2494 44.9991H53.723L64.3412 17.5259L57.7098 17.5654Z" fill="#354552" fill-opacity="0.2"/>
<path d="M133.933 12.7104V15.1577H146.564V6.23682H140.88C137.051 6.23682 134.091 9.15781 133.933 12.7104Z" fill="#354552" fill-opacity="0.2"/>
<path d="M166.656 6.27612H148.34L148.301 40.1439H159.116V15.197H173.564V12.7102C173.406 9.11817 170.485 6.27612 166.656 6.27612Z" fill="#354552" fill-opacity="0.2"/>
<path d="M173.603 16.9734H160.972V23.2101H173.603V16.9734Z" fill="#354552" fill-opacity="0.2"/>
<path d="M173.603 24.9863H160.972V31.2231H173.603V24.9863Z" fill="#354552" fill-opacity="0.2"/>
<path d="M146.564 16.9338H133.933V23.1706H146.564V16.9338Z" fill="#354552" fill-opacity="0.2"/>
<path d="M146.564 24.9469H133.933V31.1836H146.564V24.9469Z" fill="#354552" fill-opacity="0.2"/>
<path d="M160.972 32.9994V41.6045C161.051 42.7492 162.037 43.6965 163.222 43.6965C164.406 43.6965 165.432 42.8281 165.472 41.644V40.144H166.34C170.682 40.2229 173.485 36.9072 173.603 33.3941V32.9994H160.972Z" fill="#354552" fill-opacity="0.2"/>
<path d="M146.524 32.9994V41.6045C146.445 42.7492 145.458 43.6965 144.274 43.6965C143.09 43.6965 142.103 42.7887 142.024 41.644V40.144H141.156C136.814 40.2229 134.011 36.9072 133.893 33.3941V32.9994H146.524Z" fill="#354552" fill-opacity="0.2"/>
<path d="M160.498 0H146.998C145.735 0 144.748 0.986824 144.748 2.24996C144.748 3.51309 145.774 4.49992 146.998 4.49992H147.472C147.472 3.27626 148.498 2.24996 149.722 2.24996H151.064H156.472H157.814C159.077 2.24996 160.064 3.23678 160.064 4.49992H160.498C161.761 4.49992 162.748 3.51309 162.748 2.24996C162.748 0.986824 161.761 0 160.498 0Z" fill="#354552" fill-opacity="0.2"/>
</g>
<defs>
<filter id="filter0_i_686_358" x="0" y="0" width="173.604" height="56.4199" filterUnits="userSpaceOnUse" color-interpolation-filters="sRGB">
<feFlood flood-opacity="0" result="BackgroundImageFix"/>
<feBlend mode="normal" in="SourceGraphic" in2="BackgroundImageFix" result="shape"/>
<feColorMatrix in="SourceAlpha" type="matrix" values="0 0 0 0 0 0 0 0 0 0 0 0 0 0 0 0 0 0 127 0" result="hardAlpha"/>
<feOffset dy="1"/>
<feGaussianBlur stdDeviation="0.5"/>
<feComposite in2="hardAlpha" operator="arithmetic" k2="-1" k3="1"/>
<feColorMatrix type="matrix" values="0 0 0 0 0 0 0 0 0 0 0 0 0 0 0 0 0 0 0.25 0"/>
<feBlend mode="normal" in2="shape" result="effect1_innerShadow_686_358"/>
</filter>
</defs>
</svg>
