<svg width="235" height="235" viewBox="0 0 235 235" fill="none" xmlns="http://www.w3.org/2000/svg">
<g clip-path="url(#clip0_697_436)">
<path d="M79.9069 158.773C77.9619 158.784 76.0339 158.412 74.2336 157.678C72.4334 156.944 70.7965 155.862 69.4171 154.495C68.0352 153.127 66.9431 151.497 66.2058 149.7C65.4686 147.904 65.1011 145.977 65.1254 144.036V126.75H59.2842V117.378H65.1254V101.001H75.9676V117.378H88.1018V126.75H75.9857V143.865C75.9857 146.117 77.9915 148.234 80.0018 148.234H87.9392L90.8575 158.787L79.9069 158.773Z" fill="white"/>
<path d="M97.5212 105.095C97.5079 104.176 97.6875 103.264 98.0484 102.418C98.4094 101.572 98.9438 100.81 99.6174 100.182C100.271 99.5164 101.052 98.9886 101.914 98.6297C102.777 98.2707 103.702 98.0879 104.636 98.0919C106.022 98.1097 107.371 98.5355 108.514 99.3158C109.658 100.096 110.544 101.196 111.062 102.477C111.58 103.758 111.706 105.164 111.425 106.516C111.144 107.869 110.467 109.108 109.482 110.079C108.496 111.049 107.244 111.707 105.884 111.97C104.523 112.233 103.116 112.09 101.837 111.557C100.559 111.024 99.4671 110.127 98.6991 108.977C97.9311 107.827 97.5213 106.477 97.5212 105.095ZM98.7048 158.773V117.107H110.568V158.773H98.7048Z" fill="white"/>
<path d="M147.828 158.778H159.235V153.792H147.828V158.778ZM147.828 147.248V151.576H159.235V147.248H147.828ZM182.51 122.111C178.688 118.373 173.547 116.282 168.194 116.288C165.492 116.297 162.82 116.854 160.342 117.927C157.888 119.027 155.658 120.566 153.76 122.467C153.707 122.536 153.648 122.599 153.584 122.656C153.502 122.562 153.408 122.562 153.408 122.467C151.48 120.599 149.254 119.065 146.821 117.927C144.349 116.854 141.683 116.296 138.987 116.288C135.965 116.288 132.956 117.283 130.124 120.107V117.107H118.708V158.778H130.106V136.483C130.106 131.655 134.127 127.39 138.969 127.39C143.812 127.39 147.819 131.574 147.819 136.483V145.041H159.226V136.483C159.226 131.574 163.233 127.39 168.171 127.39C172.914 127.39 177.021 131.655 177.021 136.483V145.041H188.423V136.483C188.423 131.104 186.299 125.941 182.51 122.111ZM177.044 158.778H188.446V153.792H177.03L177.044 158.778ZM177.044 147.248V151.576H188.446V147.248H177.044Z" fill="white"/>
<path d="M214.558 159.773C211.812 159.75 209.105 159.136 206.62 157.972C204.13 156.857 201.893 155.248 200.047 153.243C196.857 149.71 194.904 145.24 194.481 140.505C194.373 139.66 194.313 138.809 194.301 137.956C194.322 136.049 194.566 134.15 195.028 132.299C195.801 128.72 197.536 125.418 200.047 122.746C201.899 120.723 204.132 119.084 206.62 117.923C209.132 116.754 211.876 116.164 214.648 116.198C217.422 116.154 220.17 116.744 222.68 117.923C225.19 119.045 227.429 120.69 229.249 122.746C231.739 125.445 233.498 128.733 234.358 132.299C234.817 134.143 235.033 136.039 235 137.938V140.032H204.339L204.429 140.668C205.613 146.306 209.905 150.401 214.648 150.401H214.738C217.386 150.22 220.304 148.599 222.039 147.126L223.046 146.306L230.618 152.86L229.262 154.04C228.16 155.093 226.935 156.009 225.612 156.769H225.522C222.23 158.689 218.494 159.725 214.68 159.773H214.558ZM205.613 131.934L205.251 132.664H224.139L223.773 131.934C221.673 128.025 218.208 125.656 214.648 125.656C211.088 125.656 207.533 128.115 205.613 131.934Z" fill="white"/>
<path d="M210.709 105.64L192.901 102.794L190.697 89.6831C190.599 89.1115 190.279 88.6018 189.805 88.266C189.331 87.9303 188.742 87.796 188.169 87.8928C187.596 87.9895 187.084 88.3094 186.748 88.7819C186.411 89.2545 186.276 89.8411 186.373 90.4127L189.084 106.654L210.068 109.933C210.352 109.978 210.642 109.967 210.921 109.9C211.201 109.833 211.464 109.712 211.696 109.543C211.929 109.374 212.125 109.161 212.274 108.916C212.423 108.671 212.522 108.399 212.566 108.116C212.609 107.832 212.596 107.543 212.526 107.265C212.457 106.987 212.333 106.726 212.162 106.495C211.99 106.265 211.775 106.071 211.528 105.925C211.281 105.778 211.007 105.681 210.723 105.64H210.709ZM210.709 105.64L192.901 102.794L190.697 89.6831C190.599 89.1115 190.279 88.6018 189.805 88.266C189.331 87.9303 188.742 87.796 188.169 87.8928C187.596 87.9895 187.084 88.3094 186.748 88.7819C186.411 89.2545 186.276 89.8411 186.373 90.4127L189.084 106.654L210.068 109.933C210.352 109.978 210.642 109.967 210.921 109.9C211.201 109.833 211.464 109.712 211.696 109.543C211.929 109.374 212.125 109.161 212.274 108.916C212.423 108.671 212.522 108.399 212.566 108.116C212.609 107.832 212.596 107.543 212.526 107.265C212.457 106.987 212.333 106.726 212.162 106.495C211.99 106.265 211.775 106.071 211.528 105.925C211.281 105.778 211.007 105.681 210.723 105.64H210.709ZM211.161 84.3639C206.769 79.9888 201.073 77.1509 194.927 76.2755C188.78 75.4002 182.515 76.5346 177.07 79.5086C171.625 82.4827 167.293 87.1363 164.725 92.7717C162.156 98.407 161.489 104.721 162.823 110.766H166.771C165.826 107.102 165.735 103.272 166.503 99.5678C167.271 95.8635 168.879 92.3835 171.204 89.3941C173.529 86.4048 176.509 83.9853 179.916 82.3208C183.323 80.6564 187.067 79.791 190.861 79.791C194.656 79.791 198.399 80.6564 201.806 82.3208C205.214 83.9853 208.194 86.4048 210.518 89.3941C212.843 92.3835 214.451 95.8635 215.22 99.5678C215.988 103.272 215.896 107.102 214.951 110.766H218.891C219.931 106.074 219.769 101.196 218.422 96.5817C217.074 91.9678 214.583 87.7661 211.179 84.3639H211.161ZM210.709 105.64L192.901 102.794L190.697 89.6831C190.599 89.1115 190.279 88.6018 189.805 88.266C189.331 87.9303 188.742 87.796 188.169 87.8928C187.596 87.9895 187.084 88.3094 186.748 88.7819C186.411 89.2545 186.276 89.8411 186.373 90.4127L189.084 106.654L210.068 109.933C210.352 109.978 210.642 109.967 210.921 109.9C211.201 109.833 211.464 109.712 211.696 109.543C211.929 109.374 212.125 109.161 212.274 108.916C212.423 108.671 212.522 108.399 212.566 108.116C212.609 107.832 212.596 107.543 212.526 107.265C212.457 106.987 212.333 106.726 212.162 106.495C211.99 106.265 211.775 106.071 211.528 105.925C211.281 105.778 211.007 105.681 210.723 105.64H210.709Z" fill="white"/>
<path d="M51.7444 117.378H0V126.732H51.7444V117.378Z" fill="#2AD2C9"/>
<path d="M51.7444 136.33H0V145.685H51.7444V136.33Z" fill="#2AD2C9"/>
<path d="M39.529 159.223L47.3043 101.509L38.0048 100.264L30.2295 157.977L39.529 159.223Z" fill="#2AD2C9"/>
<path d="M16.3092 159.221L24.0846 101.508L14.7851 100.263L7.00977 157.976L16.3092 159.221Z" fill="#2AD2C9"/>
</g>
<defs>
<clipPath id="clip0_697_436">
<rect width="235" height="235" fill="white"/>
</clipPath>
</defs>
</svg>
