<svg width="210" height="59" viewBox="0 0 210 59" fill="none" xmlns="http://www.w3.org/2000/svg">
<g clip-path="url(#clip0_777_716)">
<path d="M0 17.1822V20.4809H17.157V8.43451H9.45C4.263 8.43451 0.231 12.3595 0 17.1822Z" fill="#2AD2C9"/>
<path d="M44.4773 8.43451H19.6133V54.1981H34.3133V20.4809H53.9273V17.1196C53.6543 12.276 49.6853 8.43451 44.4773 8.43451Z" fill="#2AD2C9"/>
<path d="M53.9285 22.8818H36.7715V31.2955H53.9285V22.8818Z" fill="#354552"/>
<path d="M53.9285 33.7173H36.7715V42.1518H53.9285V33.7173Z" fill="#354552"/>
<path d="M17.157 22.8818H0V31.2955H17.157V22.8818Z" fill="#354552"/>
<path d="M17.157 33.7173H0V42.1518H17.157V33.7173Z" fill="#354552"/>
<path d="M36.7715 44.5527V56.1815C36.7715 56.1815 36.7715 56.1815 36.7925 56.1815C36.8975 57.7473 38.2205 58.9791 39.8375 58.9791C41.4545 58.9791 42.8195 57.7682 42.9035 56.2024V54.1772H44.0795C50.0015 54.2816 53.7815 49.8138 53.9285 45.0746V44.5527H36.7715Z" fill="#354552"/>
<path d="M17.157 44.5527V56.1815C17.157 56.1815 17.157 56.1815 17.136 56.1815C17.031 57.7473 15.708 58.9791 14.091 58.9791C12.474 58.9791 11.109 57.7682 11.025 56.2024V54.1772H9.849C3.927 54.3025 0.147 49.8347 0 45.0955V44.5736H17.157V44.5527Z" fill="#354552"/>
<path d="M36.1202 0H17.7662C16.0652 0 14.7002 1.35704 14.7002 3.02725C14.7002 4.69745 16.0862 6.05449 17.7662 6.05449H18.3962C18.3962 4.38429 19.7822 3.02725 21.4622 3.02725H23.2892H30.6602H32.4872C34.1882 3.02725 35.5532 4.38429 35.5532 6.05449H36.1202C37.8212 6.05449 39.1862 4.69745 39.1862 3.02725C39.1862 1.35704 37.8002 0 36.1202 0Z" fill="#354552"/>
<path d="M90.8458 59.0001C87.5908 59.0001 84.9448 58.1023 82.8448 56.3277C80.7448 54.574 79.7158 52.1522 79.7158 49.1458V32.8405H85.6168V48.6239C85.6168 51.7138 87.3808 53.2587 90.8668 53.2587C94.3528 53.2587 96.1168 51.6929 96.1168 48.6239V32.8405H102.018V49.1458C102.018 52.1313 100.989 54.5531 98.8888 56.3277C96.7888 58.1023 94.1008 59.0001 90.8458 59.0001Z" fill="#354552"/>
<path d="M196.371 58.4781L183.372 43.2584V58.4781H177.471V32.8405H181.902L194.901 48.0602V32.8405H200.802V58.4781H196.371Z" fill="#354552"/>
<path d="M136.416 32.8405H142.317V58.4781H136.416V32.8405Z" fill="#354552"/>
<path d="M159.894 59C156.177 59 153.006 57.7265 150.381 55.1585C147.756 52.5906 146.475 49.4381 146.475 45.6801C146.475 41.9222 147.756 38.7488 150.381 36.2017C153.006 33.6338 156.156 32.3602 159.894 32.3602C163.611 32.3602 166.782 33.6338 169.407 36.2017C172.032 38.7696 173.313 41.9222 173.313 45.6801C173.313 49.4381 172.032 52.6115 169.407 55.1585C166.782 57.7056 163.611 59 159.894 59ZM159.894 53.2795C162.036 53.2795 163.8 52.5906 165.228 51.15C166.656 49.7304 167.391 47.8931 167.391 45.6592C167.391 43.4253 166.656 41.5881 165.228 40.1684C163.8 38.7488 162.015 38.0389 159.894 38.0389C157.752 38.0389 155.946 38.7279 154.518 40.1684C153.09 41.5881 152.376 43.4253 152.376 45.6592C152.376 47.8931 153.069 49.7304 154.518 51.15C155.946 52.5906 157.752 53.2795 159.894 53.2795Z" fill="#354552"/>
<path d="M126.336 58.4781L113.337 43.2584V58.4781H107.436V32.8405H111.867L124.866 48.0602V32.8405H130.767V58.4781H126.336Z" fill="#354552"/>
<path d="M92.7777 0V5.63694H85.5957V25.6377H79.6947V5.63694H72.5127V0H92.7777Z" fill="#354552"/>
<path d="M111.593 25.6377L106.721 17.224H101.975V25.6377H96.0742V0H108.338C110.816 0 112.874 0.835103 114.596 2.56794C116.318 4.30078 117.179 6.3259 117.179 8.78945C117.179 11.9002 115.268 14.7604 112.433 16.2219L117.914 25.6377H111.593V25.6377ZM101.975 5.4908V12.0881H108.338C109.955 12.0881 111.278 10.6684 111.278 8.78945C111.278 6.91047 109.955 5.4908 108.338 5.4908H101.975V5.4908Z" fill="#354552"/>
<path d="M153.195 25.6377L143.682 0H150.129L156.954 18.8524L163.758 0H170.205L160.692 25.6377H153.195Z" fill="#354552"/>
<path d="M178.815 20.0007H190.239V25.6377H172.914V0H190.05V5.63694H178.815V9.87509H188.58V15.4494H178.815V20.0007Z" fill="#354552"/>
<path d="M200.78 20.0007H209.999V25.6377H194.9V0H200.801V20.0007H200.78Z" fill="#354552"/>
<path d="M139.628 25.6377H146.075L136.205 0H128.687L118.817 25.6377H125.264L126.797 21.6083H138.116L139.628 25.6377ZM128.876 16.1175L132.446 6.7017L136.016 16.1175H128.876Z" fill="#354552"/>
</g>
<defs>
<clipPath id="clip0_777_716">
<rect width="210" height="59" fill="white"/>
</clipPath>
</defs>
</svg>
