<svg width="40" height="44" viewBox="0 0 40 44" fill="none" xmlns="http://www.w3.org/2000/svg">
<path d="M0.0400391 12.7103V15.1576H12.6714V6.23676H6.9873C3.15841 6.23676 0.197931 9.15775 0.0400391 12.7103Z" fill="#4EC2BF"/>
<path d="M32.7632 6.27618H14.4477L14.4082 40.144H25.2238V15.1971H39.671V12.7103C39.5131 9.11824 36.5921 6.27618 32.7632 6.27618Z" fill="#4EC2BF"/>
<path d="M39.7105 16.9733H27.0791V23.2101H39.7105V16.9733Z" fill="#364653"/>
<path d="M39.7105 24.9864H27.0791V31.2231H39.7105V24.9864Z" fill="#364653"/>
<path d="M12.6714 16.9339H0.0400391V23.1706H12.6714V16.9339Z" fill="#364653"/>
<path d="M12.6714 24.9469H0.0400391V31.1836H12.6714V24.9469Z" fill="#364653"/>
<path d="M27.0791 32.9994V41.6045C27.158 42.7492 28.1449 43.6965 29.3291 43.6965C30.5133 43.6965 31.5396 42.8281 31.579 41.644V40.144H32.4474C36.7895 40.2229 39.5921 36.9072 39.7105 33.3941V32.9994H27.0791Z" fill="#364653"/>
<path d="M12.6314 32.9994V41.6045C12.5524 42.7492 11.5656 43.6965 10.3814 43.6965C9.19723 43.6965 8.2104 42.7886 8.13145 41.6439V40.144H7.26304C2.921 40.2229 0.118419 36.9072 0 33.3941V32.9994H12.6314Z" fill="#364653"/>
<path d="M26.6052 0H13.1054C11.8423 0 10.8555 0.986824 10.8555 2.24996C10.8555 3.51309 11.8818 4.49992 13.1054 4.49992H13.5791C13.5791 3.27626 14.6054 2.24996 15.8291 2.24996H17.1712H22.579H23.921C25.1842 2.24996 26.171 3.23678 26.171 4.49992H26.6052C27.8683 4.49992 28.8552 3.51309 28.8552 2.24996C28.8552 0.986824 27.8683 0 26.6052 0Z" fill="#364653"/>
</svg>
